<?xml version="1.0" standalone="no"?>
<!DOCTYPE svg PUBLIC "-//W3C//DTD SVG 20010904//EN"
 "http://www.w3.org/TR/2001/REC-SVG-20010904/DTD/svg10.dtd">
<svg version="1.0" xmlns="http://www.w3.org/2000/svg"
 width="300.000000pt" height="300.000000pt" viewBox="0 0 300.000000 300.000000"
 preserveAspectRatio="xMidYMid meet">
<metadata>
Created by potrace 1.11, written by Peter Selinger 2001-2013
</metadata>
<g transform="translate(0.000000,300.000000) scale(0.100000,-0.100000)"
fill="#000000" stroke="none">
<path d="M1527 2113 c-32 -131 -59 -247 -61 -258 -3 -11 -25 -105 -50 -210
-25 -104 -64 -264 -85 -355 -22 -91 -56 -232 -76 -315 -20 -82 -39 -163 -42
-178 l-4 -28 107 3 108 3 28 110 c15 61 29 121 32 135 3 14 7 34 10 45 2 11
19 79 36 150 17 72 53 220 80 330 159 656 190 785 190 795 0 6 -45 10 -108 10
l-108 0 -57 -237z"/>
<path d="M581 1904 c-282 -123 -515 -225 -518 -227 -2 -3 -4 -47 -4 -98 0
-172 -5 -154 54 -179 28 -12 70 -30 92 -40 22 -10 90 -39 150 -65 61 -26 124
-53 140 -60 17 -8 125 -55 240 -105 116 -51 224 -98 240 -105 69 -31 125 -54
126 -52 1 1 2 64 3 140 1 86 -2 141 -9 147 -5 4 -57 27 -115 49 -58 23 -114
46 -125 51 -50 24 -456 180 -467 180 -20 0 23 26 72 43 25 8 140 52 255 97
116 45 248 95 295 112 47 17 87 33 90 35 6 6 7 282 0 292 -3 5 -236 -92 -519
-215z"/>
<path d="M1898 2072 c-2 -31 -2 -96 0 -144 l3 -88 32 -14 c18 -8 138 -55 267
-106 129 -50 244 -96 255 -100 11 -5 54 -23 95 -39 l75 -29 -40 -17 c-22 -9
-49 -20 -60 -25 -11 -5 -155 -62 -319 -128 -264 -104 -301 -122 -305 -143 -4
-13 -4 -79 -1 -145 l5 -122 265 115 c146 64 290 127 320 140 30 14 145 64 255
112 l200 87 0 124 c0 122 0 124 -25 137 -21 11 -705 308 -948 412 l-71 30 -3
-57z"/>
</g>
</svg>
